<?xml version="1.0" encoding="UTF-8" standalone="no"?>
<svg
   xmlns:dc="http://purl.org/dc/elements/1.1/"
   xmlns:cc="http://creativecommons.org/ns#"
   xmlns:rdf="http://www.w3.org/1999/02/22-rdf-syntax-ns#"
   xmlns:svg="http://www.w3.org/2000/svg"
   xmlns="http://www.w3.org/2000/svg"
   xmlns:sodipodi="http://sodipodi.sourceforge.net/DTD/sodipodi-0.dtd"
   xmlns:inkscape="http://www.inkscape.org/namespaces/inkscape"
   width="136.10358mm"
   height="129.3mm"
   viewBox="0 0 136.10358 129.3"
   version="1.1"
   id="svg2821"
   inkscape:version="1.0.2 (e86c8708, 2021-01-15)"
   sodipodi:docname="baseball.svg">
  <defs
     id="defs2815" />
  <sodipodi:namedview
     id="base"
     pagecolor="#ffffff"
     bordercolor="#666666"
     borderopacity="1.0"
     inkscape:pageopacity="0.0"
     inkscape:pageshadow="2"
     inkscape:zoom="0.58"
     inkscape:cx="175.77506"
     inkscape:cy="235.77503"
     inkscape:document-units="mm"
     inkscape:current-layer="layer1"
     inkscape:document-rotation="0"
     showgrid="false"
     inkscape:window-width="1252"
     inkscape:window-height="943"
     inkscape:window-x="143"
     inkscape:window-y="49"
     inkscape:window-maximized="0"
     inkscape:pagecheckerboard="true"
     fit-margin-top="0"
     fit-margin-left="0"
     fit-margin-right="0"
     fit-margin-bottom="0" />
  <metadata
     id="metadata2818">
    <rdf:RDF>
      <cc:Work
         rdf:about="">
        <dc:format>image/svg+xml</dc:format>
        <dc:type
           rdf:resource="http://purl.org/dc/dcmitype/StillImage" />
        <dc:title></dc:title>
      </cc:Work>
    </rdf:RDF>
  </metadata>
  <g
     inkscape:label="Layer 1"
     inkscape:groupmode="layer"
     id="layer1"
     transform="translate(-59.326181,-85.784525)">
    <ellipse
       style="fill:#ffffff;fill-opacity:1;stroke:#ff0000;stroke-width:2.3;stroke-opacity:1"
       id="path3384"
       cx="127.37797"
       cy="150.43452"
       rx="66.901787"
       ry="63.5" />
    <path
       style="fill:none;stroke:#ff0000;stroke-width:2;stroke-linecap:butt;stroke-linejoin:miter;stroke-miterlimit:4;stroke-dasharray:none;stroke-opacity:1"
       d="m 86.934523,101.29762 c 6.215115,3.4015 19.485737,10.70777 23.434527,16.63095 5.03727,7.55591 3.02381,18.74796 3.02381,27.21429 0,7.52146 1.06425,16.15371 -0.75596,23.43452 -0.33666,1.34666 -1.60442,1.60442 -2.26785,2.26786 -0.57947,0.57947 -4.63249,13.14152 -5.29167,15.11904 -1.25471,3.76412 -3.676,5.15332 -6.04762,8.31548 -1.371021,1.82803 -1.671971,5.45174 -3.02381,6.80357 -0.620035,0.62004 -1.318212,0.56226 -2.267857,1.51191"
       id="path3414" />
    <path
       style="fill:none;stroke:#ff0000;stroke-width:2;stroke-linecap:butt;stroke-linejoin:miter;stroke-miterlimit:4;stroke-dasharray:none;stroke-opacity:1"
       d="m 173.11309,108.10119 c -6.14821,10.90583 -12.8324,24.87127 -15.875,37.04167 -1.64389,6.57558 0.95919,22.18282 2.26786,28.72619 0.70187,3.50934 4.67895,7.1716 6.80357,9.82738 1.65232,2.06539 5.83643,9.07143 8.31548,9.07143"
       id="path3422" />
    <path
       style="opacity:1;fill:#ffffff;fill-opacity:1;stroke:#ff0000;stroke-width:2;stroke-miterlimit:4;stroke-dasharray:none;stroke-opacity:1"
       d="m 89.958332,117.17263 c 4.509674,-2.14092 7.253941,-5.74204 10.583328,-9.07143 0.37418,-0.37418 1.98723,-0.47532 2.26786,-0.75596 0.40879,-0.40879 3.02381,-3.40871 3.02381,-3.77976"
       id="path3424"
       inkscape:transform-center-x="55.470091"
       inkscape:transform-center-y="10.291222" />
    <path
       style="opacity:1;fill:#ffffff;fill-opacity:1;stroke:#ff0000;stroke-width:2;stroke-miterlimit:4;stroke-dasharray:none;stroke-opacity:1"
       d="m 101.29762,132.29166 c 5.89985,-2.64299 10.66683,-6.93761 15.875,-10.58333 1.66432,-1.16502 3.85513,-1.58728 5.29166,-3.02381 0.17818,-0.17818 -0.17817,-0.57777 0,-0.75595 0.25199,-0.25199 0.3996,0.75595 0.75596,0.75595 0.25198,0 -0.17818,-0.57777 0,-0.75595 0.12062,-0.12062 2.26051,-0.75595 2.26785,-0.75595"
       id="path3428" />
    <path
       style="opacity:1;fill:#ffffff;fill-opacity:1;stroke:#ff0000;stroke-width:2;stroke-miterlimit:4;stroke-dasharray:none;stroke-opacity:1"
       d="m 104.32143,148.16666 c 10.04385,0.98095 19.59647,-3.77976 29.48214,-3.77976"
       id="path3430" />
    <path
       style="opacity:1;fill:#ffffff;fill-opacity:1;stroke:#ff0000;stroke-width:2;stroke-miterlimit:4;stroke-dasharray:none;stroke-opacity:1"
       d="m 104.32143,166.30952 c 1.25992,0 2.56238,-0.32463 3.77976,0 4.73857,1.26362 10.67396,3.82508 15.11905,6.04762 1.19297,0.59649 5.34232,2.26786 3.77976,2.26786"
       id="path3432" />
    <path
       style="opacity:1;fill:#ffffff;fill-opacity:1;stroke:#ff0000;stroke-width:2;stroke-miterlimit:4;stroke-dasharray:none;stroke-opacity:1"
       d="m 99.02976,181.42857 c 1.00794,0.50397 2.08617,0.88681 3.02381,1.5119 3.0897,2.0598 6.08383,4.56287 9.07143,6.80358 0.50397,0.25198 1.00793,0.50396 1.5119,0.75595 0,0.25198 -0.17818,0.57777 0,0.75595 0.12213,0.12213 4.6197,0.75595 2.26786,0.75595"
       id="path3434" />
    <path
       style="opacity:1;fill:#ffffff;fill-opacity:1;stroke:#ff0000;stroke-width:2;stroke-miterlimit:4;stroke-dasharray:none;stroke-opacity:1"
       d="m 156.48215,111.125 c 1.74511,-0.13132 18.85145,14.3631 18.8988,14.3631"
       id="path3438" />
    <path
       style="opacity:1;fill:#ffffff;fill-opacity:1;stroke:#ff0000;stroke-width:2;stroke-miterlimit:4;stroke-dasharray:none;stroke-opacity:1"
       d="m 147.24127,126.19191 c 1.51191,1.00794 3.05122,1.97593 4.53572,3.02381 3.82927,2.70302 7.43932,5.7155 11.33928,8.31548 3.70824,2.47215 8.16291,4.38314 11.33929,7.55952"
       id="path3440" />
    <path
       style="opacity:1;fill:#ffffff;fill-opacity:1;stroke:#ff0000;stroke-width:2;stroke-miterlimit:4;stroke-dasharray:none;stroke-opacity:1"
       d="m 156.96439,199.07614 c 1.5119,-1.5119 3.02381,-3.02381 4.53571,-4.53571 2.26786,-2.26786 3.93494,-5.36925 6.80358,-6.80357 1.12217,-0.56109 3.69371,-1.42586 4.53571,-2.26786 0.62996,-0.62996 0.88194,-1.6379 1.5119,-2.26786 0.25199,-0.25198 2.01588,-0.50396 2.26786,-0.75595 0.17818,-0.17818 -0.17818,-0.57777 0,-0.75595 0.34741,-0.34741 1.67218,-0.91623 2.26786,-1.51191"
       id="path3442" />
    <path
       style="opacity:1;fill:#ffffff;fill-opacity:1;stroke:#ff0000;stroke-width:2;stroke-miterlimit:4;stroke-dasharray:none;stroke-opacity:1"
       d="m 148.5316,186.10765 c 1.00794,-0.50396 2.12229,-0.83576 3.02381,-1.5119 0.20159,-0.15119 -0.17817,-0.57777 0,-0.75595 0.39843,-0.39843 1.11349,-0.35753 1.51191,-0.75595 0.17818,-0.17819 -0.11269,-0.53058 0,-0.75596 0.55256,-1.10512 10.53218,-10.17978 11.33928,-10.58333 1.41946,-0.70973 4.19811,-1.93025 5.29167,-3.02381 0.17818,-0.17818 -0.17818,-0.57777 0,-0.75595 0.35636,-0.35636 1.06114,0.22538 1.51191,0 0.63747,-0.31874 1.00793,-1.00794 1.5119,-1.51191"
       id="path3444" />
    <path
       style="opacity:1;fill:#ffffff;fill-opacity:1;stroke:#ff0000;stroke-width:2;stroke-miterlimit:4;stroke-dasharray:none;stroke-opacity:1"
       d="m 141.68893,155.77832 c 7.09123,3.4745 14.67151,-0.90638 21.92262,0 7.85067,0.98134 -4.31794,0.75596 3.02381,0.75596 1.88816,0 3.77976,0.80541 3.77976,0.75595 0,-0.50397 -1.15555,0.35636 -1.5119,0 -1.26367,-1.26366 0.54085,-2.26786 1.5119,-2.26786"
       id="path3446" />
  </g>
</svg>
