<?xml version="1.0" encoding="UTF-8" standalone="no"?>
<svg
   xmlns:dc="http://purl.org/dc/elements/1.1/"
   xmlns:cc="http://creativecommons.org/ns#"
   xmlns:rdf="http://www.w3.org/1999/02/22-rdf-syntax-ns#"
   xmlns:svg="http://www.w3.org/2000/svg"
   xmlns="http://www.w3.org/2000/svg"
   xmlns:sodipodi="http://sodipodi.sourceforge.net/DTD/sodipodi-0.dtd"
   xmlns:inkscape="http://www.inkscape.org/namespaces/inkscape"
   width="4.3307557in"
   height="4.3902793in"
   viewBox="0 0 110.0012 111.51309"
   version="1.1"
   id="svg8"
   inkscape:version="1.0.2 (e86c8708, 2021-01-15)"
   sodipodi:docname="basketball.svg">
  <defs
     id="defs2" />
  <sodipodi:namedview
     id="base"
     pagecolor="#ffffff"
     bordercolor="#666666"
     borderopacity="1.0"
     inkscape:pageopacity="0.0"
     inkscape:pageshadow="2"
     inkscape:zoom="0.35"
     inkscape:cx="-36.409367"
     inkscape:cy="55.019106"
     inkscape:document-units="mm"
     inkscape:current-layer="layer1"
     inkscape:document-rotation="0"
     showgrid="false"
     inkscape:window-width="1252"
     inkscape:window-height="943"
     inkscape:window-x="53"
     inkscape:window-y="25"
     inkscape:window-maximized="0"
     units="in"
     fit-margin-top="0"
     fit-margin-left="0"
     fit-margin-right="0"
     fit-margin-bottom="0" />
  <metadata
     id="metadata5">
    <rdf:RDF>
      <cc:Work
         rdf:about="">
        <dc:format>image/svg+xml</dc:format>
        <dc:type
           rdf:resource="http://purl.org/dc/dcmitype/StillImage" />
        <dc:title></dc:title>
      </cc:Work>
    </rdf:RDF>
  </metadata>
  <g
     inkscape:label="Layer 1"
     inkscape:groupmode="layer"
     id="layer1"
     transform="translate(-67.841649,-85.984528)">
    <ellipse
       style="opacity:1;fill:#f76d09;fill-opacity:1;stroke:#f76d09;stroke-width:1.9;stroke-miterlimit:4;stroke-dasharray:none;stroke-opacity:1"
       id="path833"
       cx="122.84225"
       cy="141.74107"
       rx="54.050598"
       ry="54.806545" />
    <path
       style="fill:none;stroke:#000000;stroke-width:3;stroke-linecap:butt;stroke-linejoin:miter;stroke-miterlimit:4;stroke-dasharray:none;stroke-opacity:1"
       d="M 122.39877,89.137198 C 121.77385,195.10089 121.77385,195.10089 121.77385,195.10089"
       id="path2771" />
    <path
       style="fill:none;stroke:#000000;stroke-width:3;stroke-linecap:butt;stroke-linejoin:miter;stroke-miterlimit:4;stroke-dasharray:none;stroke-opacity:1"
       d="m 69.483716,140.88005 c 105.961144,0.96609 105.961144,0.96609 105.961144,0.96609"
       id="path2771-3" />
    <path
       style="fill:none;stroke:#000000;stroke-width:2.3;stroke-linecap:butt;stroke-linejoin:miter;stroke-miterlimit:4;stroke-dasharray:none;stroke-opacity:1"
       d="m 90.714284,99.02976 c 9.734836,6.7711 10.583336,8.56577 10.583336,18.89881 0,13.77544 2.74779,29.35031 0,43.08929 -0.0699,0.34943 -0.59659,0.43721 -0.75595,0.75595 -0.5255,1.05099 -0.1038,2.47545 -0.755956,3.77976 -0.64398,1.28796 -0.984531,0.45715 -1.511906,1.5119 -2.606299,5.2126 -4.264033,4.26404 -7.559524,7.55953 -0.178179,0.17818 0.178181,0.57777 0,0.75595 -0.783246,0.78325 -2.076884,0.84747 -3.023809,2.26786 -0.501476,0.75221 -3.779761,7.04922 -3.779761,3.77976"
       id="path2793" />
    <path
       style="fill:none;stroke:#000000;stroke-width:2.3;stroke-linecap:butt;stroke-linejoin:miter;stroke-miterlimit:4;stroke-dasharray:none;stroke-opacity:1"
       d="m 160.2619,102.05357 c -2.2234,2.36927 -5.48861,5.24724 -6.80357,8.31548 -6.14831,14.34605 -12.43812,51.17617 3.77976,61.98809 1.13573,0.75715 1.81314,2.41847 3.02381,3.02381 0.79307,0.39653 3.20512,0.18131 3.77976,0.75595 0.57141,0.57141 0.32794,1.51191 1.51191,1.51191"
       id="path2795" />
  </g>
</svg>
