<?xml version="1.0" encoding="UTF-8" standalone="no"?>
<svg
   xmlns:dc="http://purl.org/dc/elements/1.1/"
   xmlns:cc="http://creativecommons.org/ns#"
   xmlns:rdf="http://www.w3.org/1999/02/22-rdf-syntax-ns#"
   xmlns:svg="http://www.w3.org/2000/svg"
   xmlns="http://www.w3.org/2000/svg"
   xmlns:sodipodi="http://sodipodi.sourceforge.net/DTD/sodipodi-0.dtd"
   xmlns:inkscape="http://www.inkscape.org/namespaces/inkscape"
   width="227.26089mm"
   height="109.95786mm"
   viewBox="0 0 227.2609 109.95786"
   version="1.1"
   id="svg3454"
   inkscape:version="1.0.2 (e86c8708, 2021-01-15)"
   sodipodi:docname="football.svg">
  <defs
     id="defs3448" />
  <sodipodi:namedview
     id="base"
     pagecolor="#ffffff"
     bordercolor="#666666"
     borderopacity="1.0"
     inkscape:pageopacity="0.0"
     inkscape:pageshadow="2"
     inkscape:zoom="0.35"
     inkscape:cx="253.98679"
     inkscape:cy="447.99696"
     inkscape:document-units="mm"
     inkscape:current-layer="layer1"
     inkscape:document-rotation="0"
     showgrid="false"
     inkscape:window-width="1252"
     inkscape:window-height="847"
     inkscape:window-x="2068"
     inkscape:window-y="83"
     inkscape:window-maximized="0"
     fit-margin-top="0"
     fit-margin-left="0"
     fit-margin-right="0"
     fit-margin-bottom="0" />
  <metadata
     id="metadata3451">
    <rdf:RDF>
      <cc:Work
         rdf:about="">
        <dc:format>image/svg+xml</dc:format>
        <dc:type
           rdf:resource="http://purl.org/dc/dcmitype/StillImage" />
        <dc:title></dc:title>
      </cc:Work>
    </rdf:RDF>
  </metadata>
  <g
     inkscape:label="Layer 1"
     inkscape:groupmode="layer"
     id="layer1"
     transform="translate(-38.632665,-29.634137)">
    <path
       style="fill:#8b4513;fill-opacity:1;stroke:#8b4513;stroke-width:2;stroke-opacity:1"
       d="m 55.940475,111.125 c -1.259919,-1.00794 -2.378863,-2.2233 -3.779761,-3.02381 -0.437568,-0.25004 -1.022985,0.12223 -1.511905,0 -1.399056,0.56149 -1.386444,-1.29155 -2.267858,-1.51191 -2.544913,-0.63622 -5.337217,-0.84705 -6.80357,-3.77976 -1.0096,-2.01919 -2.760686,-13.377436 -1.511906,-15.874997 2.370921,-4.741841 3.622847,-3.622847 6.803573,-6.803572 0.856755,-0.856756 1.014963,-2.397363 2.267857,-3.023809 1.148975,-0.574488 3.750831,-1.482974 4.535713,-2.267858 0.178181,-0.178178 -0.178179,-0.577771 0,-0.755952 0.251983,-0.251983 2.015873,-0.503967 2.267857,-0.755951 0.377976,-0.377976 0.377976,-1.13393 0.755952,-1.511906 0.356359,-0.356359 1.155546,0.356359 1.511906,0 0.178181,-0.178178 -0.178181,-0.577773 0,-0.755952 0.200104,-0.200104 1.956583,0 2.267857,0 2.530531,8.133292 1.924629,-7.146799 3.779762,-5.291666 1.564009,1.564009 -3.844769,5.389176 -3.779762,5.291666 2.4347,-3.652049 4.98747,-4.231517 7.559524,-6.803571 0.642436,-0.642436 0.813944,-1.686223 1.511905,-2.267857 3.70176,-3.0848 8.822602,-4.386418 12.851191,-6.803571 0.611151,-0.366691 0.900753,-1.145214 1.511904,-1.511905 5.351057,-3.210634 11.742131,-4.737137 17.386906,-7.559524 3.90035,-1.950173 7.50424,-4.886049 11.33928,-6.803571 0.92928,-0.464636 2.05101,-0.39115 3.02381,-0.755953 4.57284,-1.714813 9.08299,-3.783615 13.60715,-5.291666 0.33807,-0.112691 0.41023,-0.669523 0.75595,-0.755953 2.51984,-0.62996 1.67989,0.419974 3.77976,0 8.28117,-1.656233 17.11719,-1.511904 25.70238,-1.511904 2.06509,0 9.72046,-0.809416 11.33929,0 3.52774,1.763871 7.6041,2.17897 11.33928,3.779762 1.0358,0.44391 1.93055,1.238589 3.02381,1.511904 0.851,0.212749 11.27031,1.442925 11.33929,1.511905 0.17818,0.17818 0,0.503968 0,0.755952 0.25198,0.251985 0.45944,0.55828 0.75595,0.755953 1.95261,1.301737 3.94591,1.367125 6.04762,2.267857 1.67016,0.715784 2.83433,2.385789 4.53571,3.023809 5.09681,1.911302 2.44459,-0.638134 6.80358,2.267858 7.05598,4.703986 0.99193,1.502303 6.04762,4.535714 0.96631,0.579789 2.22696,0.715061 3.0238,1.511905 0.17818,0.178179 0,0.503968 0,0.755952 0.25199,0.251984 0.45945,0.55828 0.75596,0.755952 1.3956,0.930403 3.14011,1.337455 4.53571,2.267858 0.86683,0.577888 1.91349,2.551317 2.26786,3.023809 1.7367,2.3156 -0.48352,-1.239475 2.26786,1.511905 1.89763,1.897634 2.79653,5.064393 3.77976,6.047619 0.0267,0.02671 4.02972,1.005916 4.53571,1.511905 0.62276,0.622754 -0.0408,1.511904 1.51191,1.511904 12.56737,12.754608 21.16666,13.021335 21.16666,30.994049 0,1.11005 0.6969,5.35072 0,6.04762 -0.17818,0.17818 -0.57777,-0.17818 -0.75595,0 -0.50397,0.50397 -0.25198,1.76389 -0.75595,2.26786 -0.25199,0.25198 -2.01587,0.50396 -2.26786,0.75595 -0.37873,0.37873 -1.01632,1.77227 -1.5119,2.26785 -0.46444,0.46444 -1.76162,0.49942 -2.26786,1.51191 -0.86421,1.72842 -2.62774,2.62774 -3.77976,3.77976 -0.17818,0.17818 0.17818,0.57777 0,0.75595 -0.37798,0.37798 -1.88988,-0.37797 -2.26786,0 -1.14398,1.14398 -1.65176,2.26786 -4.53571,2.26786"
       id="path4047" />
    <path
       style="fill:#8b4513;fill-opacity:1;stroke:#8b4513;stroke-width:2;stroke-opacity:1"
       d="m 50.648809,108.10119 c -0.251984,-0.25198 -1.07469,-0.91532 -0.755952,-0.75595 3.219712,1.60985 24.611274,13.40605 24.946427,13.60714 12.917255,7.75035 12.798819,9.73543 24.94643,14.36309 7.750006,2.95239 16.137796,1.90183 24.190476,2.26786 6.83805,0.31082 13.54159,0.75595 20.41071,0.75595 19.75781,0 45.90911,1.67818 65.01191,-3.77976 3.69043,-1.05441 6.9763,-3.22406 10.58333,-4.53571 6.98346,-2.53944 13.94631,-3.8476 21.16667,-5.29167 2.27806,-0.45561 4.53988,-0.98951 6.80357,-1.5119 1.01235,-0.23362 3.60012,0.10851 3.02381,-0.75596 -0.88402,-1.32602 -3.02381,-1.00793 -4.53571,-1.5119"
       id="path4076" />
    <path
       style="fill:#8b4513;fill-opacity:1;stroke:#ffffff;stroke-width:8;stroke-miterlimit:4;stroke-dasharray:none;stroke-opacity:1"
       d="m 85.422617,53.672618 c -2.253813,0.727868 0.563454,2.652855 0,3.779763 -1.751885,3.503771 -0.52869,6.121786 -1.511903,9.071427 -2.409153,7.227454 -1.511906,16.261114 -1.511906,24.190476 0,2.133171 -0.694261,5.476742 0,7.559524 1.200256,3.600772 2.267858,13.043142 2.267858,16.630952 0,2.62181 2.708402,11.33929 3.77976,11.33929"
       id="path4078" />
    <path
       style="fill:#8b4513;fill-opacity:1;stroke:#ffffff;stroke-width:7.99999;stroke-miterlimit:4;stroke-dasharray:none;stroke-opacity:1"
       d="m 223.7619,53.672618 c -3.13374,6.267495 -1.88322,2.06372 1.51191,13.607142 1.97393,6.71136 4.1386,13.492337 5.29166,20.410715 0.14188,0.851278 0.59437,5.453253 0,6.047618 -0.17818,0.178181 -0.57777,-0.178178 -0.75595,0 -1.42544,1.425437 0,4.031747 0,6.047621 0,1.488846 1.07058,11.465986 0,13.607146 -0.67177,1.34354 -0.75595,2.16617 -0.75595,3.77976 0,2.40384 0.70202,14.36309 -3.02381,14.36309"
       id="path4080" />
    <path
       style="fill:none;stroke:#ffffff;stroke-width:8;stroke-linecap:butt;stroke-linejoin:miter;stroke-miterlimit:4;stroke-dasharray:none;stroke-opacity:1"
       d="m 106.58928,87.690475 c 96.00596,1.511906 96.00596,0.755951 96.00596,0.755951"
       id="path4082" />
    <path
       style="fill:#8b4513;fill-opacity:1;stroke:#ffffff;stroke-width:7.99999;stroke-miterlimit:4;stroke-dasharray:none;stroke-opacity:1"
       d="m 114.14881,64.255951 c 0.41132,6.258322 -0.62371,12.661709 0,18.898809 -0.48803,2.255708 1.21804,3.990588 1.5119,6.047621 0.31502,2.205106 -0.36648,4.604641 0,6.803569 0.99501,5.97003 0.75596,-1.36082 0.75596,4.53572 0,1.52937 -1.11387,8.71351 0,9.82738 0.17818,0.17818 0.57777,-0.17818 0.75595,0 0.77511,0.77512 0.28679,9.07142 -0.75595,9.07142"
       id="path4084" />
    <path
       style="fill:#8b4513;fill-opacity:1;stroke:#ffffff;stroke-width:7.99999;stroke-miterlimit:4;stroke-dasharray:none;stroke-opacity:1"
       d="m 184.45238,65.011905 c -2.08851,14.663208 1.5119,28.708292 1.5119,43.089285 0,2.51984 0,5.03968 0,7.55952 0,0.75596 -0.75595,2.26786 0,2.26786 0.25199,0 0,-0.50397 0,-0.75595"
       id="path4086" />
    <path
       style="fill:#8b4513;fill-opacity:1;stroke:#ffffff;stroke-width:7.99999;stroke-miterlimit:4;stroke-dasharray:none;stroke-opacity:1"
       d="m 146.65476,66.523808 c -2.11504,7.9082 -0.2122,10.822009 0.75595,16.630952 0.76892,4.613539 0.16945,9.671044 0.75595,14.363096 0.15422,1.233723 -0.41066,3.303734 0,4.535714 1.71352,5.14055 0.56201,8.1017 1.51191,12.85119 0.292,1.45999 0.75595,2.19396 0.75595,3.77976"
       id="path4088" />
  </g>
</svg>
