<?xml version="1.0" encoding="UTF-8" standalone="no"?>
<svg
   xmlns:dc="http://purl.org/dc/elements/1.1/"
   xmlns:cc="http://creativecommons.org/ns#"
   xmlns:rdf="http://www.w3.org/1999/02/22-rdf-syntax-ns#"
   xmlns:svg="http://www.w3.org/2000/svg"
   xmlns="http://www.w3.org/2000/svg"
   xmlns:sodipodi="http://sodipodi.sourceforge.net/DTD/sodipodi-0.dtd"
   xmlns:inkscape="http://www.inkscape.org/namespaces/inkscape"
   width="116.77219mm"
   height="96.733452mm"
   viewBox="0 0 116.77219 96.733452"
   version="1.1"
   id="svg8"
   inkscape:version="1.0.2 (e86c8708, 2021-01-15)"
   sodipodi:docname="heart.svg">
  <defs
     id="defs2" />
  <sodipodi:namedview
     id="base"
     pagecolor="#ffffff"
     bordercolor="#666666"
     borderopacity="1.0"
     inkscape:pageopacity="0.0"
     inkscape:pageshadow="2"
     inkscape:zoom="0.35"
     inkscape:cx="250.72313"
     inkscape:cy="253.6774"
     inkscape:document-units="mm"
     inkscape:current-layer="layer1"
     inkscape:document-rotation="0"
     showgrid="false"
     inkscape:window-width="1252"
     inkscape:window-height="943"
     inkscape:window-x="54"
     inkscape:window-y="25"
     inkscape:window-maximized="0"
     fit-margin-top="0"
     fit-margin-left="0"
     fit-margin-right="0"
     fit-margin-bottom="0" />
  <metadata
     id="metadata5">
    <rdf:RDF>
      <cc:Work
         rdf:about="">
        <dc:format>image/svg+xml</dc:format>
        <dc:type
           rdf:resource="http://purl.org/dc/dcmitype/StillImage" />
        <dc:title></dc:title>
      </cc:Work>
    </rdf:RDF>
  </metadata>
  <g
     inkscape:label="Layer 1"
     inkscape:groupmode="layer"
     id="layer1"
     transform="translate(-39.496173,-81.047856)">
    <path
       style="fill:#f38cf7;fill-opacity:1;stroke:#000000;stroke-width:0.265;stroke-linecap:butt;stroke-linejoin:miter;stroke-miterlimit:4;stroke-dasharray:none;stroke-opacity:1"
       d="m 90.714284,170.08928 c -1.347356,0 -0.780934,-1.53688 -1.511903,-2.26785 -0.70612,-0.70612 -3.073644,-0.80579 -3.779764,-1.51191 -1.564092,-1.5641 2.39014,0.0611 -0.755951,-1.5119 -2.533952,-1.26698 -4.888283,-3.2001 -7.559524,-4.53572 -0.631317,-0.31565 -1.418274,-2.22105 -1.511904,-2.26785 -0.450765,-0.22539 -1.033798,0.15937 -1.511906,0 -2.309129,-0.76971 -17.416136,-14.39233 -19.65476,-16.63096 -1.371055,-1.37105 -2.538206,-3.73972 -3.779763,-5.29166 -1.106271,-1.38284 -2.673491,-2.39693 -3.779761,-3.77977 -0.497785,-0.62223 -0.1925,-1.7044 -0.755954,-2.26785 -0.377976,-0.37798 -1.88988,0.37797 -2.267855,0 -0.760127,-0.76013 -0.801521,-2.35899 -1.511906,-3.77976 -0.318738,-0.63748 -1.193168,-0.87443 -1.511906,-1.51191 -1.219131,-2.43826 -0.755952,-6.33685 -0.755952,-9.07143 0,-3.15204 -0.979339,-10.66912 0,-13.60714 0.52102,-1.56306 2.240465,-2.969023 3.023809,-4.535714 4.373044,-8.746087 14.032206,-18.603555 24.94643,-15.875 6.079493,1.519873 9.989828,6.736419 15.119046,10.583334 1.458171,1.093628 4.153712,1.885854 5.291666,3.023809 2.679065,2.679062 5.080117,6.001701 8.315479,8.315471 4.916395,-2.89529 8.972925,-6.737898 13.607145,-9.827375 2.1332,-1.422134 4.69196,-1.756845 6.80357,-3.023809 1.60131,-0.960786 2.54408,-2.525901 4.53571,-3.02381 1.70573,-0.42643 3.59159,-0.330933 5.29167,-0.755952 0.34572,-0.08643 0.41023,-0.669523 0.75595,-0.755953 2.37903,-0.594757 5.83198,0 8.31548,0 1.93722,0 6.61712,-0.849177 8.31547,0 1.31419,0.657095 2.74081,1.2289 3.77977,2.267858 1.04881,1.048815 0.91816,3.348239 1.5119,4.535714 0.55659,1.113185 1.00299,1.002987 1.51191,1.511905 0.35636,0.356359 -0.22539,1.061141 0,1.511904 0.65929,1.318588 1.65489,2.247364 2.26785,3.779762 1.4447,3.611746 3.57988,19.498466 2.26786,23.434526 -0.37399,1.12197 -3.22639,7.00615 -3.77976,7.55952 -0.17818,0.17818 -0.57777,-0.17818 -0.75595,0 -0.35636,0.35636 0.22538,1.06114 0,1.51191 -0.74061,1.48122 -2.10087,3.15129 -3.02381,4.53571 -0.63193,0.94789 -0.84126,3.10911 -1.51191,3.77976 -0.17818,0.17818 -0.57777,-0.17818 -0.75595,0 -0.53454,0.53454 0.23905,1.5507 0,2.26786 -0.28854,0.86562 -1.10661,2.21322 -1.51191,3.02381 -0.0365,0.0729 -8.30867,7.55272 -8.31547,7.55952 -0.72298,0.72298 -3.53128,4.78945 -4.53572,5.29167 -0.54635,0.27318 -3.46297,0.43917 -3.77976,0.75595 -0.17818,0.17818 0.17818,0.57778 0,0.75595 -0.35636,0.35636 -1.09258,-0.27955 -1.5119,0 -3.21117,2.14078 -7.08269,3.54135 -10.58334,5.29167 -2.92602,1.46301 -6.82415,5.30196 -9.82738,6.80357 -0.46703,0.23352 -2.7436,0.47575 -3.02381,0.75596 -0.17818,0.17817 0.17818,0.57777 0,0.75595 -0.50396,0.50397 -2.51984,-0.50397 -3.023806,0 -0.178179,0.17818 0.17818,0.57777 0,0.75595 -0.356359,0.35636 -1.061142,-0.22538 -1.511904,0 -1.411679,0.70584 -2.407412,3.02381 -3.779762,3.02381 -0.547407,0 1.540075,-2.9393 0.755952,-5.29167 -0.213205,-0.63961 -4.166673,-2.08334 -4.535716,-2.26786 z"
       id="path835" />
  </g>
</svg>
