<?xml version="1.0" encoding="UTF-8" standalone="no"?>
<svg
   xmlns:dc="http://purl.org/dc/elements/1.1/"
   xmlns:cc="http://creativecommons.org/ns#"
   xmlns:rdf="http://www.w3.org/1999/02/22-rdf-syntax-ns#"
   xmlns:svg="http://www.w3.org/2000/svg"
   xmlns="http://www.w3.org/2000/svg"
   xmlns:sodipodi="http://sodipodi.sourceforge.net/DTD/sodipodi-0.dtd"
   xmlns:inkscape="http://www.inkscape.org/namespaces/inkscape"
   width="140.29166mm"
   height="147.09523mm"
   viewBox="0 0 140.29166 147.09523"
   version="1.1"
   id="svg4096"
   inkscape:version="1.0.2 (e86c8708, 2021-01-15)"
   sodipodi:docname="smileyFace.svg">
  <defs
     id="defs4090" />
  <sodipodi:namedview
     id="base"
     pagecolor="#ffffff"
     bordercolor="#666666"
     borderopacity="1.0"
     inkscape:pageopacity="0.0"
     inkscape:pageshadow="2"
     inkscape:zoom="0.35"
     inkscape:cx="203.68955"
     inkscape:cy="280.83237"
     inkscape:document-units="mm"
     inkscape:current-layer="layer1"
     inkscape:document-rotation="0"
     showgrid="false"
     fit-margin-top="0"
     fit-margin-left="0"
     fit-margin-right="0"
     fit-margin-bottom="0"
     inkscape:window-width="1252"
     inkscape:window-height="847"
     inkscape:window-x="2089"
     inkscape:window-y="83"
     inkscape:window-maximized="0" />
  <metadata
     id="metadata4093">
    <rdf:RDF>
      <cc:Work
         rdf:about="">
        <dc:format>image/svg+xml</dc:format>
        <dc:type
           rdf:resource="http://purl.org/dc/dcmitype/StillImage" />
        <dc:title></dc:title>
      </cc:Work>
    </rdf:RDF>
  </metadata>
  <g
     inkscape:label="Layer 1"
     inkscape:groupmode="layer"
     id="layer1"
     transform="translate(-51.940473,-73.863103)">
    <ellipse
       style="fill:#f6f013;fill-opacity:1;stroke:#ffffff;stroke-width:7.99999"
       id="path4659"
       cx="122.0863"
       cy="147.41072"
       rx="66.145836"
       ry="69.547623" />
    <ellipse
       style="fill:#000000;fill-opacity:1;stroke:#ffffff;stroke-width:0;stroke-miterlimit:4;stroke-dasharray:none"
       id="path4661"
       cx="103.94345"
       cy="122.46429"
       rx="7.9374995"
       ry="6.8035712" />
    <ellipse
       style="fill:#000000;fill-opacity:1;stroke:#ffffff;stroke-width:0;stroke-miterlimit:4;stroke-dasharray:none"
       id="path4661-4"
       cx="151.94643"
       cy="123.97619"
       rx="7.9374995"
       ry="6.8035712" />
    <path
       style="opacity:0;fill:#000000;fill-opacity:1;stroke:#000000;stroke-width:2;stroke-miterlimit:4;stroke-dasharray:none;stroke-opacity:1"
       d="m 88.446426,154.97024 c 8.399246,4.70569 15.934964,11.51446 24.946434,15.11904 4.11398,1.6456 10.3757,2.39423 14.36309,3.02381 4.19643,0.6626 9.57026,2.01844 13.60714,0 1.42966,-0.71483 8.35949,-8.87812 9.07143,-9.82738 0.67614,-0.90152 0.71506,-2.22696 1.51191,-3.02381 1.71109,-1.71109 6.80357,-5.51485 6.80357,-6.80357"
       id="path4703" />
    <path
       style="opacity:1;fill:none;fill-opacity:1;stroke:#000000;stroke-width:2;stroke-miterlimit:4;stroke-dasharray:none;stroke-opacity:1"
       d="m 88.446426,154.97024 c 3.779761,3.77976 7.491436,7.62886 11.339285,11.33929 2.543589,2.45274 11.424559,11.10377 15.874999,13.60714 13.18085,7.41423 29.19798,-1.4011 39.30952,-9.82738 2.3114,-1.92617 2.30197,-5.32578 4.53571,-7.55953 0.64244,-0.64243 1.62543,-0.86947 2.26786,-1.5119 2.693,-2.693 4.10138,-6.36923 6.80357,-9.07143 0.87051,-0.87051 1.51191,-0.39197 1.51191,-1.5119"
       id="path4705" />
  </g>
</svg>
