<?xml version="1.0" encoding="UTF-8" standalone="no"?>
<svg
   xmlns:dc="http://purl.org/dc/elements/1.1/"
   xmlns:cc="http://creativecommons.org/ns#"
   xmlns:rdf="http://www.w3.org/1999/02/22-rdf-syntax-ns#"
   xmlns:svg="http://www.w3.org/2000/svg"
   xmlns="http://www.w3.org/2000/svg"
   xmlns:sodipodi="http://sodipodi.sourceforge.net/DTD/sodipodi-0.dtd"
   xmlns:inkscape="http://www.inkscape.org/namespaces/inkscape"
   width="151.20393mm"
   height="142.04599mm"
   viewBox="0 0 151.20393 142.04599"
   version="1.1"
   id="svg861"
   inkscape:version="1.0.2 (e86c8708, 2021-01-15)"
   sodipodi:docname="spider.svg">
  <defs
     id="defs855" />
  <sodipodi:namedview
     id="base"
     pagecolor="#ffffff"
     bordercolor="#666666"
     borderopacity="1.0"
     inkscape:pageopacity="0.0"
     inkscape:pageshadow="2"
     inkscape:zoom="0.36568253"
     inkscape:cx="308.57086"
     inkscape:cy="224.22041"
     inkscape:document-units="mm"
     inkscape:current-layer="layer1"
     inkscape:document-rotation="0"
     showgrid="false"
     inkscape:window-width="1252"
     inkscape:window-height="943"
     inkscape:window-x="53"
     inkscape:window-y="52"
     inkscape:window-maximized="0"
     fit-margin-top="0"
     fit-margin-left="0"
     fit-margin-right="0"
     fit-margin-bottom="0" />
  <metadata
     id="metadata858">
    <rdf:RDF>
      <cc:Work
         rdf:about="">
        <dc:format>image/svg+xml</dc:format>
        <dc:type
           rdf:resource="http://purl.org/dc/dcmitype/StillImage" />
        <dc:title></dc:title>
      </cc:Work>
    </rdf:RDF>
  </metadata>
  <g
     inkscape:label="Layer 1"
     inkscape:groupmode="layer"
     id="layer1"
     transform="translate(-25.770716,-88.313935)">
    <ellipse
       style="fill:#000000;fill-opacity:1;stroke:#f50000;stroke-width:0.264999"
       id="path1424"
       cx="100.54166"
       cy="108.47917"
       rx="19.654762"
       ry="20.032738" />
    <path
       style="fill:#000000;fill-opacity:1;stroke:#000000;stroke-width:0.264583px;stroke-linecap:butt;stroke-linejoin:miter;stroke-opacity:1"
       d="m 98.273808,127.75595 c -1.840968,0.14081 -6.721779,-0.30651 -8.315476,0.75595 -0.46882,0.31255 -0.315968,1.15992 -0.755951,1.51191 -0.879968,0.70397 -2.086166,0.88681 -3.02381,1.5119 -3.550099,2.36674 -8.490674,7.32917 -9.827381,11.33929 -0.239054,0.71716 0.338071,1.59171 0,2.26786 -1.40195,2.80389 -1.953681,6.61699 -3.023809,9.82738 -0.989973,2.96991 -3.168097,6.0131 -3.779764,9.07142 -0.839184,4.19593 -0.755951,8.4342 -0.755951,12.8512 0,2.83562 -0.894453,7.14401 0,9.82738 2.081829,6.24548 6.4809,11.91699 10.583333,17.3869 1.301972,1.73596 3.764619,6.04257 6.047618,6.80357 2.256692,0.75223 4.545256,1.51509 6.803573,2.26786 2.144635,0.71488 5.57285,-0.23739 7.559524,0.75595 1.796386,0.89819 15.003316,1.56977 16.630956,0.75595 0.88058,-0.44029 1.38726,-1.07161 2.26785,-1.5119 1.44905,-0.72453 3.77081,-0.249 5.29167,-0.75595 2.90708,-0.96903 10.47029,-5.0656 12.09524,-8.31548 1.07613,-2.15226 -0.0499,-6.65381 0.75595,-9.07143 3.23901,-9.71704 2.86494,-13.64552 0.75595,-24.19047 -0.2183,-1.09148 0.35148,-2.72532 0,-3.77977 -1.38342,-4.15026 -4.79346,-8.07501 -6.80357,-12.09523 -0.76228,-1.52457 -0.52111,-2.4587 -1.5119,-3.77977 -0.42764,-0.57017 -1.19317,-0.87443 -1.51191,-1.5119 -0.22538,-0.45076 0.15937,-1.0338 0,-1.51191 -0.27615,-0.82844 -1.7777,-1.53261 -2.26786,-2.26785 -1.33489,-2.00234 -1.71084,-4.07817 -3.02381,-6.04762 -1.43181,-2.14772 -3.63424,-2.12235 -5.29166,-3.77976 -1.54753,-1.54753 -3.89863,-4.97313 -6.04762,-6.04762 -0.6294,-0.3147 -2.5443,0.47951 -3.02381,0 -0.37798,-0.37798 -0.37798,-1.13393 -0.75595,-1.51191 -0.35636,-0.35636 -1.15555,0.35636 -1.51191,0 -0.17818,-0.17818 0.17818,-0.57777 0,-0.75595 -0.35636,-0.35636 -1.0338,0.15937 -1.5119,0 -2.86401,-0.95467 -2.59034,-0.86432 -6.047622,0 z"
       id="path1444" />
    <path
       style="fill:none;stroke:#000000;stroke-width:2;stroke-linecap:butt;stroke-linejoin:miter;stroke-miterlimit:4;stroke-dasharray:none;stroke-opacity:1"
       d="m 46.869048,111.125 c 1.569222,6.99276 4.575214,13.42099 8.315475,19.65476 1.045229,1.74205 1.587278,3.85514 3.02381,5.29167 0.251983,0.25198 2.015873,0.50397 2.267857,0.75595 0.178178,0.17818 0,0.50397 0,0.75595 0.251984,0.25199 0.470866,0.54214 0.755952,0.75595 1.040236,0.78018 5.721331,3.9946 6.803572,4.53572 1.989151,0.99457 7.467542,0 9.827379,0"
       id="path1448" />
    <path
       style="fill:none;stroke:#000000;stroke-width:2;stroke-linecap:butt;stroke-linejoin:miter;stroke-miterlimit:4;stroke-dasharray:none;stroke-opacity:1"
       d="m 126.61825,146.87717 c 6.90526,-2.63923 15.99374,-10.67 20.25892,-16.64125 0.89259,-1.24963 1.49479,-3.71312 2.1706,-5.06473 0.98748,-1.97496 -0.90396,-13.74713 0.72353,-13.74713"
       id="path1450" />
    <path
       style="fill:none;fill-opacity:1;stroke:#000000;stroke-width:2;stroke-miterlimit:4;stroke-dasharray:none;stroke-opacity:1"
       d="m 138.19478,166.41256 c 13.79086,-4.45422 23.34593,-15.12175 31.11191,-26.77072 0.5928,-0.8892 0.39214,-5.1862 0.72354,-6.51179 0.50303,-2.01216 1.44706,-3.76317 1.44706,-5.78827"
       id="path1452" />
    <path
       style="fill:none;fill-opacity:1;stroke:#000000;stroke-width:2;stroke-miterlimit:4;stroke-dasharray:none;stroke-opacity:1"
       d="m 138.19478,191.01268 c 2.40704,-0.12332 4.83065,0.18497 7.23533,0 5.0873,-0.39133 18.91656,-4.85532 22.42952,2.1706 0.61653,1.23307 0.10567,1.96734 0.72353,2.89413 1.70896,2.56344 3.3328,5.36096 5.06473,7.95886 0.37839,0.56759 1.142,0.83693 1.44706,1.44707 0.33322,0.66644 0.004,2.89413 0.72354,2.89413 0.48235,0 -0.24118,-0.72354 -0.72354,-0.72354"
       id="path1456" />
    <path
       style="fill:none;fill-opacity:1;stroke:#000000;stroke-width:2;stroke-miterlimit:4;stroke-dasharray:none;stroke-opacity:1"
       d="m 134.57711,206.20687 c 4.21225,-0.44947 7.14777,3.41489 10.853,4.34119 1.15841,0.28961 2.74816,-0.14597 3.61766,0.72354 0.17054,0.17054 -0.17054,0.55299 0,0.72353 0.34108,0.34108 1.10599,-0.34108 1.44707,0 0.42885,0.42885 0.4001,1.05446 1.44706,1.44707 1.64401,0.6165 3.444,0.77176 5.06473,1.44706 1.61723,0.67385 7.71654,4.82241 8.6824,5.78827 0.36176,0.36176 -0.36177,1.80883 0,2.17059 0.64934,0.64935 2.96832,1.52126 3.61766,2.1706 0.19126,0.19126 0,5.53423 0,3.61767"
       id="path1458" />
    <path
       style="fill:none;fill-opacity:1;stroke:#000000;stroke-width:2;stroke-miterlimit:4;stroke-dasharray:none;stroke-opacity:1"
       d="m 69.459157,162.07136 c -8.0601,-0.60676 -18.547538,-2.62981 -24.60012,-8.68239 -2.023591,-2.02359 -2.321938,-5.21607 -4.341196,-7.23533 -1.988478,-1.98848 -5.788263,-3.37428 -5.788263,-6.5118 0,-1.92361 -0.943303,-3.7732 -1.447067,-5.78826 -0.138086,-0.55234 0.377275,-2.51686 0,-2.89413 -0.170537,-0.17054 -0.552995,0.17054 -0.723532,0 -0.395044,-0.39505 -0.723532,-3.68307 -0.723532,-2.1706"
       id="path1460" />
    <path
       style="fill:none;fill-opacity:1;stroke:#000000;stroke-width:2;stroke-miterlimit:4;stroke-dasharray:none;stroke-opacity:1"
       d="m 68.01209,184.50088 c -7.474765,0.0872 -14.958986,-0.29882 -22.42952,0 -1.531512,0.0613 -9.644536,7.89536 -10.852992,9.40593 -0.989036,1.23629 -1.220007,3.07374 -2.170599,4.3412 -0.847262,1.12968 -5.788263,6.97951 -5.788263,5.06473"
       id="path1462" />
    <path
       style="fill:none;fill-opacity:1;stroke:#000000;stroke-width:2;stroke-miterlimit:4;stroke-dasharray:none;stroke-opacity:1"
       d="m 76.694484,199.69507 c -5.369036,0.52289 -23.153052,15.15169 -23.153052,19.53539 0,2.18341 -1.647034,5.36468 -2.894132,7.23533 -0.159615,0.23942 -2.09088,2.89413 -1.447064,2.89413 0.482354,0 0,-0.96471 0,-1.44707"
       id="path1464" />
    <ellipse
       style="fill:#ffffff;fill-opacity:1;stroke:none;stroke-width:1.19829;stroke-miterlimit:4;stroke-dasharray:none;stroke-opacity:1"
       id="path1466"
       cx="92.973976"
       cy="100.57108"
       rx="2.5323648"
       ry="2.8941312" />
    <ellipse
       style="fill:#ffffff;fill-opacity:1;stroke:none;stroke-width:1.19829;stroke-miterlimit:4;stroke-dasharray:none;stroke-opacity:1"
       id="path1466-7"
       cx="108.52993"
       cy="101.2946"
       rx="2.5323648"
       ry="2.8941312" />
  </g>
</svg>
